<svg xmlns="http://www.w3.org/2000/svg" xmlns:xlink="http://www.w3.org/1999/xlink" viewBox="0 0 1440 33.3"><defs><clipPath id="a" transform="translate(0 0)"><path d="M21.39,132.36c-.41-2-2.34-1.31-4.3-1.25-2,.41-3.93-1.67-4.41-1.22v-2.5c-3-.14-5.18-2.18-8-2a53.71,53.71,0,0,0-13.85,2.46c.19-2.19.33-4.36.46-6.53-.38-.15-.63-.33-.58-.61v-.29c.06-.37.11-.78.16-1.2h0c0-.4.08-.82.11-1.26a1,1,0,0,1,0-.11c0-.43,0-.89.07-1.35a.83.83,0,0,1,0-.1v-4.91c-.05-1.8-.15-3.7-.28-5.65-.06-.78-.11-1.56-.17-2.35-.2-2.48-.43-5-.67-7.38-.09-.82-.17-1.62-.26-2.41v-.06c-.16-1.49-.32-2.9-.48-4.22a1.49,1.49,0,0,0-.06-.51c-.05-.41-.09-.8-.14-1.18-.46-3.82-.81-6.5-.81-6.94,0-1.52.08-3,.12-4.53v-64A10.34,10.34,0,0,1-12,8.87c4,.21,8.06.39,12.09.58h0L9,9.88,12,10c8,.36,16,.7,24,1,7.39-4.58,14.84-1.13,22.33,1h0l1,.25h.17c4.12,1.06,8.26,1.56,12.4-.07,1.54-.13,3.07-.32,4.61-.54l2.91-.45h.18L81,11c7.3-1.21,14.62-2.44,21.91-.34h0a26.9,26.9,0,0,1,5.16,2.12c.65-.31,1.3-.58,2-.84l.74-.27,1.16-.38c.79-.24,1.59-.46,2.39-.63h.13a31.69,31.69,0,0,1,5.35-.65h3.47l1,.06,1,.09,1.22.12,1.48.18.81.11,1.31.2.67.11,2,.34c3.72.67,7.42,1.45,11.11,2,5,0,9.91-.24,14.81-.39h.06c2.06-.07,4.11-.11,6.15-.09h0c2.06,0,4.12.09,6.17.25a56.36,56.36,0,0,1,7.6,1.08c3.15.26,6.33.48,9.51.59q1.59.06,3.18.07h4.14c.82,0,1.63-.08,2.46-.14l.92-.06c1.1-.09,2.2-.2,3.3-.35a12.47,12.47,0,0,1,1.53-.41h.07a19.15,19.15,0,0,1,6.86.11h0c2.59.43,5.19,1.09,7.79,1.33h0c.46,0,.91.07,1.37.08h1.71a7.37,7.37,0,0,0,1.24-.15H223a13,13,0,0,0,1.31-.31l.29-.09a12.58,12.58,0,0,0,1.33-.5H229c1,0,2-.07,3-.13,6.77-.38,13.55-1.22,20.39.07l7.32.17h0q16.24.42,32.36,1.15l1.89.09h0q18.78.85,37.45,1.91l16.33.9,11.67.63,11.24.6c3.19.24,6.36.49,9.51.69h0l3.7.21c3.35.16,6.68.25,10,.18,14.78-.36,29.46-2.07,44.11-.75h.12c1.15.1,2.3.22,3.45.37,1.39-.13,2.77-.22,4.15-.32h0q3.16-.22,6.32-.35h0q4.28-.16,8.56-.19h7.71q4,0,8,.13h.21l6.24.12,6.1.09c1,.15,2.08.26,3.11.34l1.1.06c.67,0,1.34.08,2,.09h3.11l1.49-.06,1.6-.08L502.9,20l1.4-.11,1.92-.17,1-.1c5.46-.54,10.93-1.24,16.41-1.33h4.18c.8,0,1.6.09,2.41.17l.7.08c.67.07,1.35.16,2,.26l.79.12c.88.15,1.76.32,2.64.53,8.68-.77,17.39-1.2,26.13-1.1h1.09a184,184,0,0,1,20.91,1.38h16.44q1.48,0,3,.1l1.07,0c1.26.07,2.53.15,3.8.27.92-.09,1.85-.16,2.77-.22h.87l1.94-.07h3.8l2.61.08L622,20l1.48.09,1.43.1,1.21.1,1.57.13h0c1.88.17,3.76.37,5.64.58.45-.11.9-.19,1.35-.28.81-.16,1.61-.29,2.42-.39h0c.8-.09,1.6-.16,2.4-.2h0a79.47,79.47,0,0,1,11.5.6A60.94,60.94,0,0,1,659.39,22h0c2.63.57,5.25,1.24,7.86,1.91a110.17,110.17,0,0,0,12.29,2.65l.55.08c2.34-.23,5-.41,7.84-.51q1.65-.06,3.37-.06h.39c2.36,0,4.77,0,7.16.2h0a55.18,55.18,0,0,1,15.57,2.87,10.11,10.11,0,0,0,1.12.2h.28a9,9,0,0,0,.94,0H717a8.23,8.23,0,0,0,1-.1h.2a7.91,7.91,0,0,0,.87-.2h.13a9.36,9.36,0,0,0,1-.35h.09c.3-.13.59-.28.89-.43h.08a15.85,15.85,0,0,0,1.87-1.24c1.93-1.47,3.73-3.39,5.67-5.19h0A30.73,30.73,0,0,1,732,19.21a14,14,0,0,1,5.22-2.35c-2.08-2.76,1.14-3.43,6.52-3.55h11.46c1.09,0,2.19,0,3.29,0h1.07l1.5-.07,1.06-.07,1.6-.13.87-.08c.81-.09,1.61-.19,2.38-.31l.52.12c8.89,2.13,18,1.8,27.26,1,2.53-.23,5.07-.5,7.61-.76,2.27-.24,4.55-.48,6.83-.69.44.24.87.46,1.3.67s.67.3,1,.44l.28.12c.4.16.81.31,1.21.44h.06c.42.14.85.27,1.27.38a23.63,23.63,0,0,0,4.77.74c6.42.35,12.83-1.64,19.2-3l.84-.17.83-.16,1.59-.27.58-.08,1.38-.18.44,0c.57-.06,1.15-.1,1.73-.13H848a17.54,17.54,0,0,1,1.78.11h.43c.61.07,1.21.15,1.82.27a6.71,6.71,0,0,0,.8.37l.26.11a8.71,8.71,0,0,0,5,0,44.7,44.7,0,0,1,5.2-1.22h.06a8.07,8.07,0,0,1,1.75,0h.14a6.22,6.22,0,0,1,.82.17h.15a6.25,6.25,0,0,1,.84.32,7.52,7.52,0,0,0,.79.8c2.53,2.27,5,1.15,7.56,0h0l.65-.29.16-.07.6-.25h.08l.64-.23h.15a4.91,4.91,0,0,1,.63-.17h.13a6.55,6.55,0,0,1,.65-.11h0a4.89,4.89,0,0,1,.66,0H880a4.15,4.15,0,0,1,.65.09h.12a4.23,4.23,0,0,1,.67.22,11.05,11.05,0,0,1,1.13-.44l.37-.11c.26-.07.51-.15.76-.2l.42-.08.73-.12h2.62l1,.07h.07c3.28.32,6.54,1.28,9.77,1.12a12.46,12.46,0,0,0,1.89-.22c5.58-.85,11.16.53,16.72,1.91,1.53.38,3.06.75,4.57,1.08a48.64,48.64,0,0,0,4.88.83h.29a21.58,21.58,0,0,0,14.58-3.22l.19-.07h0q1.29-.51,2.58-.93h.15c.82-.26,1.65-.5,2.47-.71h.08a41,41,0,0,1,5.15-1h0a48.8,48.8,0,0,1,14.77.59l.28.06q1.19.22,2.37.49l.25.06q1.22.28,2.43.61h.11c.86.23,1.71.48,2.57.74,1.3.4,2.6.82,3.9,1.27l2.46.89c.63-.09,1.26-.16,1.9-.21l1.4-.11h0c11.81-.75,23.31,3.2,34.39,3.29a51.07,51.07,0,0,1,8.53,3.52l1.44.68c3.59,1.69,7.22,3.24,10.43,3.39,4.36.2,8.75.59,13.16,0h0c.45-.06.91-.12,1.37-.2l.39-.07,1-.2.46-.1,1-.26.42-.12q.69-.21,1.38-.45a23.27,23.27,0,0,1,2.36.08h.43c4.17.2,8.36.6,12.56.47h.05c.72,0,1.44-.06,2.17-.12s1.26-.1,1.89-.19c3.7,0,7.4,0,11.11,0h4.05c1.48,0,3,0,4.45-.1.52-.08,1-.18,1.57-.29l.49-.11,1.07-.25c3.61-.88,7.22-2,10.83-1.76h0a11.93,11.93,0,0,1,5.65,1.92c4.26-3,7.79-3.21,11.52-3.84l1.37-.25h.12c.48-.1,1-.21,1.45-.34l.24-.07c.39-.11.79-.23,1.2-.37l.4-.14c.49-.17,1-.37,1.5-.6a87,87,0,0,0,23.6-1.46A130.61,130.61,0,0,1,1181,12.62c6.12-.28,12.26-.74,18.43-.22h0c1.5.13,3,.3,4.5.56,4.57.27,9.16,1.41,13.75,1.6h1.16a24.71,24.71,0,0,0,3.05-.18l.54-.07.66-.11.71-.14.58-.14.84-.24.47-.14c.45-.15.88-.31,1.33-.49,1.83-.15,3.65-.27,5.49-.38l4.38-.25h.36c4.34-.23,8.68-.46,13-.84h.4c1.42.15,2.84.22,4.27.24h3l2.07-.1,1.83-.12c2.93-.23,5.87-.58,8.81-.89l2.91-.29c.56.07,1.12.1,1.68.14,7.2.58,14.41-.47,21.6.38,6.44,7.26,10.21,8.51,12.85,7.44h0a4.85,4.85,0,0,0,.7-.36h0a5.78,5.78,0,0,0,.63-.45c1.75-1.41,3-3.79,4.43-5.47h0c1.22-1.43,2.58-2.33,4.52-1.67a29.83,29.83,0,0,1,8.89-.14h0c1.27.13,2.55.29,3.82.43l.71.08.87.09,1.55.13h.43l1.2,0h2.25a10.78,10.78,0,0,0,1.12-.09l.53-.06c.54-.07,1.08-.16,1.63-.28a10.49,10.49,0,0,0,1.34.14H1346a7.76,7.76,0,0,0,1.07-.11h.19c.4-.06.81-.13,1.21-.21,1.7-.34,3.4-.83,5.11-1.21l.91-.19.32-.06.95-.15h.26c.34,0,.68-.07,1-.09h1.53a10.49,10.49,0,0,1,1.09.12h.22a10,10,0,0,1,1.11.27l.19.06a9.74,9.74,0,0,1,1.14.45l.13.06a11.16,11.16,0,0,1,1.21.68c.44-.18.89-.34,1.34-.48l.43-.11c.31-.09.61-.17.92-.24l.49-.09c.28,0,.57-.11.86-.15l.5-.06.86-.09h3.13l1,.06h.25l1.24.1h0l2.41.24,1.63.16h.22l1.66.12h2.09c.55,0,1.09,0,1.64,0a2.93,2.93,0,0,0,.55.2h.14a2.86,2.86,0,0,0,.42.06h.11a3.2,3.2,0,0,0,.44,0h.06a4.29,4.29,0,0,0,.5-.09h0c1.71-.41,3.28-1.67,4.71-.7h0a2.91,2.91,0,0,1,.45.4c6.42-1.9,10-.81,10.37-.37.49.06,1,.1,1.44.12h2.06L1405,8.9l-.12-.12a4.35,4.35,0,0,1-.49-.58h0a1.26,1.26,0,0,1-.16-1.37h0a1.74,1.74,0,0,1,.35-.42h0a3.87,3.87,0,0,1,.65-.46c.53-.25,3.94-.33,9.28-.31,2.67,0,5.82.28,9.34.45h.39a32.62,32.62,0,0,0,5.14-.14,10.42,10.42,0,0,0,6,0c2.06-2.85,4.19.25,6.37-1.22a2,2,0,0,0,.38.18h.11l.28.07h.43a5.77,5.77,0,0,1,2.05.14,1.43,1.43,0,0,0,.51.32c.6.22,1.19,0,1.79.32h0l.19.13h.05l.14.13.07.08.13.16.07.1.13.22.06.11c.07.12.13.26.2.41,2.25-.8,4.54-1.46,6.84,0,2.3-1.59,4.63,1.36,6.95-.66,2.32,1.54,4.65,2.48,7,1.41h1c2,.07,3.9.61,5.82,0h.08c1.77.08,3.47,3.23,5.17,5.64.23.33.47.64.7.94l.06.07a10.22,10.22,0,0,0,.69.78c1.1.45,2.2-2,3.28-.11,1.08.64,2.15-.06,3.2-2.12,2.11,3.71,4.16-1,6.14.29a1.18,1.18,0,0,0,.21.2h.05l.15.08h.49l.19-.11h0a3.07,3.07,0,0,0,.65-.73c1.4-2,2.78-6.71,4.07-5.16a6.31,6.31,0,0,1,5.2-.42l.18-.07h0c1.57-.62,3,0,4.4.28a44.23,44.23,0,0,0,7-.06,23.27,23.27,0,0,0,3.54-.26c3.62,2.23,7.46,4.51,6.7,6.67-.45,1.3-.85,2.57-1.23,3.83-.14.46-.26.91-.39,1.36-.22.77-.42,1.52-.6,2.28-.14.53-.28,1.07-.39,1.59-.19.84-.35,1.65-.51,2.46a3.57,3.57,0,0,1-.11.55,63.36,63.36,0,0,0-1,8.32,58.63,58.63,0,0,0,.68,12.45,67.11,67.11,0,0,0,1.42,6.62c.35,1.32.74,2.61,1.13,3.88l.17.54q.61,1.9,1.27,3.74h0c.82,2.28,1.67,4.49,2.5,6.69h0v.07a114.33,114.33,0,0,1,4,12h0a42.43,42.43,0,0,1-2,28.28q-.64,1.6-1.43,3.26l-1.89.11-4.78.27a11.9,11.9,0,0,1-2.49,0c-.12.85-.25,1.7-.39,2.53q-.57,3.35-1.37,6.55c-.11.28-3.76-4.67-9.55.55-5.78-1.7-13.68-4.63-22.29-.6-8.61-1.68-17.91.59-26.49-1.16-8.58.75-.36-7.21-6.08-3.78a83.6,83.6,0,0,0-9.36.44l-.22.11-.14.07-.25.09h-.11a2,2,0,0,1-.36.06c-.54.06-1.07.1-1.6.12h-2.75c-5.64.57-10.57,1.19-10.57,1.19v-1c-5.65.31-10.56.55-14.24.73-4.41.22-7.1.33-7.38.29,0-.11,0-3.4-.14-8.77q-18.52.32-37,.58c-.53-.17-1.1-.38-1.68-.61l-.21-.08c-.56-.22-1.15-.45-1.74-.71h0c-1.66-.71-3.42-1.53-5.14-2.37h0l-2.16-1.09h-.09c-4.35-2.23-7.92-4.27-7.92-4.27a6,6,0,0,1-.68,5.41l-.1.13a5.88,5.88,0,0,1-.84.85h-.06a7,7,0,0,1-1,.68l-.33.17a10.29,10.29,0,0,1-1.49.61l-2.34.12-1.95.11-14.68.84h-.3c-14.16.8-30.59,1.6-39.53,1.12-1.17-.21-2.33-.35-3.5-.46a82.3,82.3,0,0,0-15.1.3c-7.52.68-15,1.61-22.56.43-.72-.15-1.45-.28-2.17-.4a53,53,0,0,0-6.29-.62H1240c-.93,0-1.86,0-2.79,0h-.43q-1.41,0-2.83.07h-.22c-2,.08-4,.22-6.06.38l-2.06.16h-.08a119.06,119.06,0,0,1-18,.63l-.29-.07c-2.18-.54-4.35-1-6.53-1.4-6.31-1.08-12.62-1.12-18.92,1.76-4.76-.11-9.52.15-14.28.24h0a85.2,85.2,0,0,1-11.44-.42c-8.58,3-17.16,2.52-25.73,1-8.58-.37-17.16,1.06-25.73-1-.48-.24-1-.45-1.43-.64l-.32-.12c-.47-.17-.93-.32-1.39-.45l-.26-.06c-.41-.1-.82-.18-1.22-.25l-.3,0a12.33,12.33,0,0,0-1.35-.13h-1.79a20.41,20.41,0,0,0-4.79.87c-4.29-.21-8.58,1.4-12.88.82-2.18.13-4.35.42-6.53.66h0l-1.6.16h-.28l-1.43.1h-.26a21.26,21.26,0,0,1-10.41-1.72h0c-.25-.12-.5-.22-.75-.36a53.72,53.72,0,0,1-6.68-.89l-1.48-.24h-.28l-1.27-.16h-.28c-.44,0-.88-.08-1.32-.1H1044a14.55,14.55,0,0,0-1.52.2l-.3.06a13.32,13.32,0,0,0-2.33.7l-.14.06a13.86,13.86,0,0,0-2.43,1.33h0c-.31.21-.61.41-.92.65l-.28-.29a7.19,7.19,0,0,0-4.06-2.39h0l-.48-.06h0a6.77,6.77,0,0,0-1.45,0H1030l-.43.08h-.13a11.78,11.78,0,0,0-1.45.43c-4.12,1.51-8.23,5.18-12.35,4l-.35-.1h0c-.58.11-1.16.18-1.74.24h-.2c-.52,0-1,.08-1.57.1h0a37.24,37.24,0,0,1-5.5-.28h0c-2.06-.25-4.12-.6-6.18-.93-.88-.14-1.77-.28-2.65-.4h-.3c-1-.13-2-.24-2.93-.32-.58.17-1.16.32-1.74.46l-.45.1A29.52,29.52,0,0,1,973.18,111a22.75,22.75,0,0,0-4.62-.49,81.61,81.61,0,0,0-10.7,1l-1.22.14-.51,0c-.58.06-1.15.1-1.74.13h-.44c-.62,0-1.23,0-1.85,0a6.93,6.93,0,0,1-.64.28l-.2.07-.45.14-.23,0-.42.09H948l-.43-.06h-.2l-.47-.09h-.16l-.52-.13h-.1l-.6-.18h0c-4.47-1.45-9-4.66-13.43-1.59a9.49,9.49,0,0,0-1.07.84,26.89,26.89,0,0,1-7.32,2h0a25.41,25.41,0,0,1-5.11.14h-.13a12.41,12.41,0,0,1-1.6-.17H917a27.87,27.87,0,0,1-3.27-.67l-.39-.11-1.21-.37-.43-.14c-.53-.18-1-.37-1.57-.57-.23-.25-.46-.48-.68-.69l-.2-.18-.5-.42-.21-.16c-.22-.16-.44-.31-.66-.44h0c-2.64-1.58-5.28-1.06-7.92,0-1,.39-2,.84-3,1.29-3.67,1.65-7.34,3.15-11,.21a5,5,0,0,1-1,.24h-.08a5.74,5.74,0,0,1-.92,0h-.11a7.52,7.52,0,0,1-.92-.11h-.08c-.33-.06-.65-.14-1-.23h0l-1-.29-.2-.06-.6-.2-1.27-.41h0c-.34-.1-.68-.19-1-.26a5.65,5.65,0,0,0-4.31.55l-.28.18a7.89,7.89,0,0,0-1.66,1.55c-3.16,2-6.31,1.74-9.45.86h0l-.8-.23h0c-1.34-.41-2.69-.91-4-1.37a12.87,12.87,0,0,0-1.43-.18H854a11.91,11.91,0,0,0-1.34.1h-.24c-.45,0-.91.12-1.37.19h-.11l-1.32.24-.34.06-1.08.22-1.82.36h-.08a30.69,30.69,0,0,1-3.26.46c-3.84-.14-7.67-.56-11.5-.88-.88-.07-1.76-.15-2.64-.21l-1.46.23h-.21l-1.35.24-1.61.28h-.09c-3.13.52-6.26.73-9.38-1a12.57,12.57,0,0,0-6-1,23.78,23.78,0,0,0-4,.64h-.11c-.62.15-1.26.32-1.88.49h-.17l-1.91.54c-7-.07-14.09.52-21.15.53a11.88,11.88,0,0,1-1.12.42l-.46.14-.53.14c-6.37,1.57-12.74-1.76-19.16,0a48.47,48.47,0,0,1-14,1h0c-2.47-.15-5-.43-7.43-.81-.5-.07-1-.11-1.52-.14H731.7l-1,.08h-.52l-1.44.16-.78.1-.69.09c-4,.56-8.08,1.33-12.15,1.06-7.73-.93-15.41,3.19-23.07.9a20.15,20.15,0,0,1-1.8,1.48h0c-.36.26-.71.5-1.07.72h0c-4.77,2.94-9.54,2.12-14.3-2.71l-.34-.3c-4.26-3.69-8.51-1.44-12.76.21l-.86.32h-.12l-1,.32h-.06c-.33.1-.67.19-1,.27h0c-.34.08-.69.15-1,.2l-.45-.11c-1.34-.35-2.67-.67-4-.91q-1.05-.2-2.1-.33a28.69,28.69,0,0,0-10.59.42,33.15,33.15,0,0,0-3.87.78c-1.2.3-2.4.62-3.6.89H633l-.93.19H632c-.67.12-1.35.22-2,.27H627.7a7,7,0,0,1-1-.12h-.19a3.22,3.22,0,0,1-.79-.18l-.31-.09-.7-.24-.3-.12a10.59,10.59,0,0,1-1-.46c-.38-.16-.75-.29-1.13-.41l-.58-.18a15.56,15.56,0,0,0-1.63-.37h0a18.5,18.5,0,0,0-2.85-.26c-5.6-.09-11.2,2-16.82,1A15.08,15.08,0,0,1,587,118h0a19,19,0,0,1-1.89-.7h0c-.62-.27-1.24-.57-1.87-.91a8.35,8.35,0,0,1-1.06.57L582,117a7.74,7.74,0,0,1-.83.31H581a7.62,7.62,0,0,1-.92.2h0c-4.41.63-8.71-2.41-12.94-1.2-1.16.07-2.49-1.24-3.89-3.08l-.25.51q-.33-.44-.66-.91h0l-.64-.92-.15-.22-.55-.81c-1-1.49-2-3-3-4.35-1.72-2.33-3.36-4-4.73-3.45-.4.16-.6,1.41-.72,3.14a4.91,4.91,0,0,1-.07,1v1c-.06,1.55-.11,3.24-.2,4.78a.3.3,0,0,1,0,.06c0,.55-.07,1.09-.11,1.59h0a9.55,9.55,0,0,1-.62,3.07c-4.73,2.29-9.41-2.44-14.09,1.09l-.27.22a9.69,9.69,0,0,0-.78.71l-1.09-.51-.25-.11-.92-.4-.24-.1c-.35-.15-.7-.29-1.06-.42h-.06a15.28,15.28,0,0,0-2.34-.66h-.11a10.08,10.08,0,0,0-1.07-.14h-.11a8.17,8.17,0,0,0-2.37.18,10.22,10.22,0,0,0-5.56,3.84,8.37,8.37,0,0,0-4.54-1.52c-5.36-.52-13.1,1.25-18.35,2h-.08l-1.29.17h-.37l-.92.07h-.35a9.69,9.69,0,0,1-1,0,8.85,8.85,0,0,1-1.07-.53c-.14-.08-.27-.17-.4-.26s-.34-.22-.5-.34l-.48-.39-.25-.23a10.27,10.27,0,0,1-2.9-6.12h0c0-.32-.07-.62-.09-.9v-2.5s0,.17-.15.44h0l-.13.35v.07a21.69,21.69,0,0,1-2.75,5h0a16.36,16.36,0,0,1-6,5.11c-6-1.88-14.61-2.14-23.61-1.84l-3.81.15h-.06l-3.49.18c-9.39.54-18.49,1.34-24.58,1.16-6.76,2.07-13.52,2.26-20.26-1.41a19.45,19.45,0,0,1-11.3,2.14,4.4,4.4,0,0,1-.87-.15h-.24c-.35-.07-.7-.16-1.06-.25h0a21,21,0,0,1-6.71-3.22,8.68,8.68,0,0,1-1.85.55l-.29.06c-.25,0-.49.06-.74.08h-1.41l-.74-.06h-.32l-.77-.12h-.28l-.84-.17h-.19c-1.16-.26-2.32-.58-3.48-.85l-.26-.06-.75-.15-.37-.07-.67-.1-.42-.06-.64,0h-1.5a4.19,4.19,0,0,0-.7.09H367A8,8,0,0,0,366,118c-4.36-.47-8.71,1.78-13.06,1.17L352,119l-.33-.1-.56-.17-.46-.15-.37-.13a47.1,47.1,0,0,0-5.13-1.65,8.56,8.56,0,0,0-5.26.29c-3.15-.87-6.3-.41-9.45-.81h0a12.9,12.9,0,0,1-3.58-1c-4.35-.23-8.7,2.43-13.06,1-2-.16-4-4.21-6-7.46l-.15-.24-.24-.37-.36-.55-.17-.24-.29-.42-.13-.18c-.13-.18-.27-.34-.4-.51l-.13-.15c-.12-.14-.23-.26-.35-.38l-.09-.09a5,5,0,0,0-.41-.36l-.11-.08a2.8,2.8,0,0,0-.39-.25h0a2.17,2.17,0,0,0-.42-.16h-.11a1.51,1.51,0,0,0-.43,0,2.12,2.12,0,0,0-.58.15H303a3.17,3.17,0,0,0-.55.31l-.1.07a5.77,5.77,0,0,0-.56.47l-.07.07c-.19.18-.37.38-.56.6h0c-.19.23-.38.47-.57.73l-.09.12-.56.8-.08.13-.57.88h0l-.58.94-.06.11-.54.91-.22.36c-.8,1.34-1.61,2.67-2.41,3.74h0l-.59.74-.19.2c-.14.15-.28.31-.42.44a5.48,5.48,0,0,1-.62.51c-.51-.21-1-.39-1.52-.57-7.09-2.46-14.16-1.92-21.22-.77-1.21.2-2.41.41-3.61.63-6.35,1.16-12.69,2.48-19,2.23-7.39,3.75-14.76,1.67-22.13-.28-1.11-.29-2.22-.58-3.32-.85s-2.14-.49-3.22-.69a34.07,34.07,0,0,0-4.26-.53h0a22.8,22.8,0,0,0-4.25.14,18.82,18.82,0,0,0-5.76,1.71,10.39,10.39,0,0,0-1,.53c-.3.19-.76.43-1.15.68l-.12.07c-12,7.53-24.07,7-36.16,3.18h0a94.63,94.63,0,0,1-8.9-3.37c-9.19,1-18.4-.26-27.66-1l-2.94-.2a83.94,83.94,0,0,0-15,.2,15.36,15.36,0,0,0-5-1.25q-.78-.07-1.57-.07H105c.9,2.22,1.81,4.44,2.67,6.71,0,0-9.71-3-17.17-2.74,1.85.86-3.6,2.63-2.95,3.38a1.85,1.85,0,0,1,.47,2.11c-2,1.85-3.56,0-4.85,1.67-1.29.32-2.32-1.71-3.34,1.11-1-6.08-2,.74-3.31-.12a12.12,12.12,0,0,1-4.77-1.4c-1-.42-2.12,3.56-3.39-.76-1.28-2.29-2.71-.65-4.32-1.17a7.65,7.65,0,0,0-.76-.33,68.46,68.46,0,0,1-11.38.78h0c-1.41,1.77-3.51-.9-6.26,1.39-1.37-.33-2.91,2.32-4.6,1.45-1.69,2.47-3.55,1-5.55,1.31-2-5.12-4.18,2.19-6.49.57-2.31,0-4.78,3.9-7.39,1.45" style="fill:none"/></clipPath><clipPath id="b" transform="translate(0 0)"><rect y="4.63" width="1440" height="28.67" style="fill:none"/></clipPath></defs><title>border</title><g style="clip-path:url(#a)"><g style="clip-path:url(#b)"><rect width="1440" height="33.3" style="fill:#f5f7f9"/></g></g></svg>